<svg width="26" height="31" viewBox="0 0 26 31" fill="none" xmlns="http://www.w3.org/2000/svg"><path d="M24 29v-4.05c0-3.818 0-5.728-1.209-6.913-1.207-1.187-3.152-1.187-7.041-1.187L13 19.55l-2.75-2.7c-3.888 0-5.834 0-7.041 1.187C2 19.222 2 21.132 2 24.95V29m16.5-8.1v4.05m2.063-2.025h-4.125m1.375-14.85v-1.35c0-.62-.125-1.235-.367-1.808a4.7 4.7 0 0 0-1.043-1.533 4.8 4.8 0 0 0-1.561-1.024 4.9 4.9 0 0 0-3.684 0 4.8 4.8 0 0 0-1.561 1.024 4.7 4.7 0 0 0-1.043 1.533 4.65 4.65 0 0 0-.367 1.808v1.35c0 .62.125 1.235.367 1.808a4.7 4.7 0 0 0 1.043 1.533 4.8 4.8 0 0 0 1.561 1.024 4.9 4.9 0 0 0 3.684 0 4.8 4.8 0 0 0 1.561-1.024c.447-.439.801-.96 1.043-1.533a4.7 4.7 0 0 0 .366-1.808" stroke="#202020" stroke-width="2.5" stroke-linecap="round" stroke-linejoin="round"/></svg>