<svg width="33" height="23" viewBox="0 0 33 23" fill="none" xmlns="http://www.w3.org/2000/svg"><path d="M10.925 0A4.04 4.04 0 0 0 6.9 4.025a4.04 4.04 0 0 0 4.025 4.025 4.04 4.04 0 0 0 4.025-4.025A4.04 4.04 0 0 0 10.925 0m10.35 0a4.04 4.04 0 0 0-4.025 4.025 4.04 4.04 0 0 0 4.025 4.025A4.04 4.04 0 0 0 25.3 4.025 4.04 4.04 0 0 0 21.275 0m-10.35 2.3c.966 0 1.725.759 1.725 1.725s-.759 1.725-1.725 1.725A1.71 1.71 0 0 1 9.2 4.025c0-.966.759-1.725 1.725-1.725m10.35 0c.966 0 1.725.759 1.725 1.725s-.759 1.725-1.725 1.725a1.71 1.71 0 0 1-1.725-1.725c0-.966.759-1.725 1.725-1.725M5.75 6.9c-2.53 0-4.6 2.07-4.6 4.6 0 1.28.549 2.435 1.402 3.27A5.79 5.79 0 0 0 0 19.55h2.3a3.434 3.434 0 0 1 3.45-3.45 3.434 3.434 0 0 1 3.45 3.45h2.3a5.79 5.79 0 0 0-2.552-4.78c.853-.835 1.402-1.989 1.402-3.27 0-2.53-2.07-4.6-4.6-4.6m5.75 12.65A5.78 5.78 0 0 0 10.35 23h2.3a3.434 3.434 0 0 1 3.45-3.45A3.434 3.434 0 0 1 19.55 23h2.3a5.78 5.78 0 0 0-1.15-3.45 5.8 5.8 0 0 0-1.402-1.33c.853-.835 1.402-1.989 1.402-3.27 0-2.53-2.07-4.6-4.6-4.6s-4.6 2.07-4.6 4.6c0 1.28.549 2.435 1.402 3.27a5.8 5.8 0 0 0-1.402 1.33m9.2 0H23a3.434 3.434 0 0 1 3.45-3.45 3.434 3.434 0 0 1 3.45 3.45h2.3a5.79 5.79 0 0 0-2.552-4.78c.853-.835 1.402-1.989 1.402-3.27 0-2.53-2.07-4.6-4.6-4.6s-4.6 2.07-4.6 4.6c0 1.28.549 2.435 1.402 3.27a5.79 5.79 0 0 0-2.552 4.78M5.75 9.2c1.285 0 2.3 1.016 2.3 2.3s-1.015 2.3-2.3 2.3a2.28 2.28 0 0 1-2.3-2.3c0-1.284 1.015-2.3 2.3-2.3m20.7 0c1.285 0 2.3 1.016 2.3 2.3s-1.015 2.3-2.3 2.3a2.28 2.28 0 0 1-2.3-2.3c0-1.284 1.015-2.3 2.3-2.3M16.1 12.65c1.285 0 2.3 1.015 2.3 2.3s-1.015 2.3-2.3 2.3a2.28 2.28 0 0 1-2.3-2.3c0-1.285 1.015-2.3 2.3-2.3" fill="#202020"/></svg>