<svg xmlns="http://www.w3.org/2000/svg" viewBox="0 0 60 60" xml:space="preserve"><path d="M59 28h-4v2h3v28H36.3c2.8-2 4.7-5.3 4.7-9V39c0-3.7-1.8-7-4.7-9H49v-2H11v2h12.7c-2.8 2-4.7 5.3-4.7 9v10c0 3.7 1.8 7 4.7 9H2V30h3v-2H1c-.6 0-1 .4-1 1v30c0 .6.4 1 1 1h58c.6 0 1-.4 1-1V29c0-.6-.4-1-1-1M21 49V39c0-5 4-9 9-9s9 4 9 9v10c0 5-4 9-9 9s-9-4-9-9"/><path d="M54 34c0-.6-.4-1-1-1h-6v2h5v5h2zM5 34v6h2v-5h5v-2H6c-.6 0-1 .4-1 1m0 14v6c0 .6.4 1 1 1h6v-2H7v-5zm49 6v-6h-2v5h-5v2h6c.6 0 1-.4 1-1M29 37h2c1.7 0 3 1.3 3 3h2c0-2.8-2.2-5-5-5v-2h-2v2c-2.8 0-5 2.2-5 5s2.2 5 5 5h2c1.7 0 3 1.3 3 3s-1.3 3-3 3h-2c-1.7 0-3-1.3-3-3h-2c0 2.8 2.2 5 5 5v2h2v-2c2.8 0 5-2.2 5-5s-2.2-5-5-5h-2c-1.7 0-3-1.3-3-3s1.3-3 3-3m16 6h3v2h-3zm-33 0h3v2h-3zM29 4.4V18h2V4.4l1.3 1.3 1.4-1.4-3-3c-.4-.4-1-.4-1.4 0l-3 3 1.4 1.4zM19 25c.3 0 .5-.1.7-.3l3-3-1.4-1.4-1.3 1.3V8h-2v13.6l-1.3-1.3-1.4 1.4 3 3c.2.2.4.3.7.3m22 0c.3 0 .5-.1.7-.3l3-3-1.4-1.4-1.3 1.3V8h-2v13.6l-1.3-1.3-1.4 1.4 3 3c.2.2.4.3.7.3M7 10.4V30h2V10.4l1.3 1.3 1.4-1.4-3-3c-.4-.4-1-.4-1.4 0l-3 3 1.4 1.4zm44 0V30h2V10.4l1.3 1.3 1.4-1.4-3-3c-.4-.4-1-.4-1.4 0l-3 3 1.4 1.4zM29 20h2v2h-2zm0 4h2v2h-2zM40 4h2v2h-2zm0-4h2v2h-2zM18 4h2v2h-2zm0-4h2v2h-2z"/></svg>