<svg xmlns="http://www.w3.org/2000/svg" width="800" height="800" viewBox="0 0 32 32" xml:space="preserve"><path d="M26.824 18.765c.234-.022.432-.077.602-.249l.003-.004c.275-.082.517-.277.578-.568q.257-1.233.518-2.467c.177-.848.308-1.703.459-2.555.312-1.762.618-3.526.869-5.3q.08-.58.143-1.166c.026-.224-.11-.483-.263-.634a.9.9 0 0 0-.579-.252 1.1 1.1 0 0 0-.434-.136c-.186-.018-.379-.012-.567-.008-.202.004-.402-.004-.604-.01-.389-.012-.777-.031-1.166-.047-.781-.035-1.564.008-2.345.008-1.733.002-3.464.022-5.194.014q-2.349-.011-4.698-.028-.498-.002-.995.002c-.422.002-.842.004-1.264-.004-.809-.011-1.615-.033-2.422-.033h-.003c-.1-.547-.202-1.094-.295-1.642q-.069-.403-.147-.807c-.043-.229-.202-.4-.4-.512a.9.9 0 0 0-.523-.198 9 9 0 0 0-.275-.004c-.727 0-1.455.062-2.183.078-.92.022-1.841-.002-2.761-.006-.48-.002-.878.401-.878.877s.398.879.877.877a64 64 0 0 0 2.74-.047c.286-.012.573-.01.862-.008q.2.002.402 0c.181 0 .363-.01.545-.016.315 1.569.624 3.138.872 4.721.137.874.318 1.731.532 2.59.222.895.391 1.802.581 2.702.183.857.375 1.713.546 2.573.175.877.357 1.75.555 2.622.186.826.4 1.646.567 2.475.171.844.373 1.68.561 2.52.049.226.1.451.137.679.022.125.1.239.193.34.032.048.055.103.097.144.179.179.385.238.628.261.078.008.156.003.233.009-.082.135-.133.288-.193.433a2 2 0 0 0-.075.218 6 6 0 0 0-.137.712 2.26 2.26 0 0 0 .173 1.209c.212.489.591.914 1.081 1.136.281.129.542.229.848.279.393.061.75.033 1.136-.035.697-.122 1.303-.585 1.66-1.183.249-.418.318-.973.347-1.448.02-.294-.01-.598-.124-.871a1.6 1.6 0 0 0-.169-.351c-.017-.029-.044-.052-.064-.08.269.002.537-.001.806.001q1.057.008 2.117 0c.791-.003 1.584.004 2.376.013a4 4 0 0 0-.212.381c-.12.235-.212.492-.263.751s-.092.522-.118.785c-.043.469.094.948.339 1.344.283.453.791.74 1.289.899.19.061.408.075.608.081.114.004.228.01.339.006.544-.014 1.071-.124 1.552-.381.306-.165.589-.508.765-.807.137-.234.245-.487.326-.744a2.5 2.5 0 0 0 0-1.503 2.5 2.5 0 0 0-.393-.705c.091-.004.182.002.272-.004.186-.014.373-.035.559-.045.147-.008.294.006.44.01.371.012.712-.263.81-.616a.85.85 0 0 0-.086-.646c-.12-.206-.288-.3-.5-.386a1.8 1.8 0 0 0-.591-.139c-.192-.012-.385.01-.577.023-.418.03-.836.028-1.254.01-.42-.016-.838-.059-1.258-.082-.424-.024-.85-.02-1.274-.026-1.803-.023-3.605.037-5.408.055-.869.008-1.741.022-2.612.02a35 35 0 0 1-2.12-.059c-.152-.662-.304-1.324-.442-1.991-.06-.288-.133-.573-.197-.86.218-.012.437-.02.655-.035.434-.031.859-.137 1.285-.218a283 283 0 0 1 2.543-.465c.834-.147 1.664-.306 2.502-.438.822-.13 1.644-.259 2.467-.379l.054-.008c.36-.046.721-.09 1.081-.141.355-.049.706-.112 1.062-.161l-.054.008c.585-.082 1.165-.185 1.75-.271q.39-.051.775-.087m-1.278 8.866a3 3 0 0 1-.162.282 2 2 0 0 1-.091.093l-.015.009a3 3 0 0 1-.352.091 4 4 0 0 1-.629-.002 2 2 0 0 1-.143-.037 4 4 0 0 1-.203-.117l-.001-.001a1 1 0 0 1-.052-.089l-.035-.118a2.4 2.4 0 0 1 .007-.339c.031-.194.072-.385.136-.572q.087-.182.197-.35.046-.048.095-.091.163-.112.331-.219c.11.132.259.233.434.283q.11.033.216.072.054.026.104.056.054.05.105.103.07.108.131.222.02.064.035.132.006.108.001.216a3 3 0 0 1-.109.376m-9.585-.542a3 3 0 0 1-.091.367 2 2 0 0 1-.066.11 2 2 0 0 1-.094.092 2 2 0 0 1-.155.086 3 3 0 0 1-.238.058 3 3 0 0 1-.346.003 3 3 0 0 1-.271-.074 3 3 0 0 1-.245-.137l-.028-.029a3 3 0 0 1-.117-.199l-.021-.081a3 3 0 0 1 .003-.251q.044-.23.115-.454.063-.124.14-.24.078-.078.161-.15.163-.106.334-.191a1 1 0 0 0 .246.113l.077.025q.12.065.231.14.175.146.332.311.023.036.042.073c.01.143.004.285-.009.428m8.461-9.614c-.761.139-1.523.279-2.288.394-.799.12-1.595.259-2.392.385-.828.129-1.654.255-2.478.406-1.256.229-2.517.44-3.778.624-.384.026-.767.028-1.151.034a69 69 0 0 1-.57-2.534c-.177-.875-.367-1.747-.551-2.62q-.27-1.289-.536-2.578c-.094-.449-.218-.891-.318-1.336a37 37 0 0 1-.283-1.366c-.113-.595-.207-1.193-.305-1.79.772-.017 1.545-.046 2.317-.047l2.433-.008c1.729-.006 3.458-.018 5.187-.018 1.566 0 3.134-.002 4.7.016.708.008 1.419.002 2.127.039.359.02.72.043 1.081.059q.252.012.506.021c-.058.526-.115 1.052-.183 1.577a65 65 0 0 1-.356 2.198c-.133.73-.239 1.466-.347 2.202a40 40 0 0 1-.778 3.984c-.322.064-.642.132-.968.184-.358.055-.715.11-1.069.174m1.843-5.082a66 66 0 0 0-.384 2.334c-.04.318-.074.637-.122.953-.029.202-.216.402-.385.5a.83.83 0 0 1-.644.084.83.83 0 0 1-.5-.385c-.122-.208-.126-.414-.086-.646.106-.583.177-1.172.265-1.758.086-.582.191-1.159.277-1.739.094-.805.169-1.613.235-2.421.02-.237.082-.441.255-.616a.876.876 0 0 1 1.232 0c.151.151.275.396.255.616a36 36 0 0 1-.398 3.078" style="fill:#111918"/></svg>