<svg width="25" height="27" viewBox="0 0 25 27" fill="none" xmlns="http://www.w3.org/2000/svg"><path d="M1.389 15.368a3.82 3.82 0 0 1 3.82-3.82h7.638a3.82 3.82 0 0 1 3.82 3.82 1.91 1.91 0 0 1-1.91 1.91H3.299a1.91 1.91 0 0 1-1.91-1.91Z" stroke="#202020" stroke-opacity=".5" stroke-width="2.183" stroke-linejoin="round"/><path d="M9.028 7.73a2.865 2.865 0 1 0 0-5.73 2.865 2.865 0 0 0 0 5.73Z" stroke="#202020" stroke-opacity=".5" stroke-width="2.183"/><rect x=".694" y="20.75" width="23.611" height="1.389" rx=".694" stroke="#202020" stroke-opacity=".5" stroke-width="1.389"/><rect x=".694" y="24.917" width="23.611" height="1.389" rx=".694" stroke="#202020" stroke-opacity=".5" stroke-width="1.389"/></svg>