<svg width="25" height="25" viewBox="0 0 25 25" fill="none" xmlns="http://www.w3.org/2000/svg"><path d="M9.86 22.275H1v-.96a7.996 7.996 0 0 1 9.07-7.84m-1.092-3.61a4.432 4.432 0 1 0 0-8.865 4.432 4.432 0 0 0 0 8.865m7.813 2.659a.886.886 0 0 0-.886.886v2.495h-2.496a.886.886 0 0 0-.887.886v2.88a.886.886 0 0 0 .887.886h2.494v2.495a.887.887 0 0 0 .887.886h2.879a.886.886 0 0 0 .886-.886v-2.493h2.495a.887.887 0 0 0 .886-.887v-2.88a.886.886 0 0 0-.886-.887h-2.493v-2.496a.886.886 0 0 0-.886-.887H16.79z" stroke="#202020" stroke-width="1.773" stroke-linecap="round" stroke-linejoin="round"/></svg>