<svg width="22" height="27" viewBox="0 0 22 27" fill="none" xmlns="http://www.w3.org/2000/svg"><path d="M11 10.8c3.039 0 5.5-2.417 5.5-5.4S14.039 0 11 0 5.5 2.417 5.5 5.4s2.461 5.4 5.5 5.4m0-8.1c1.512 0 2.75 1.215 2.75 2.7S12.512 8.1 11 8.1 8.25 6.885 8.25 5.4 9.488 2.7 11 2.7m8.786 11.556C17.476 13.095 14.48 12.15 11 12.15s-6.476.945-8.786 2.106A4.06 4.06 0 0 0 .59 15.744 3.95 3.95 0 0 0 0 17.847V27h2.75v-9.153c0-.513.275-.972.688-1.188C5.1 15.836 7.74 14.85 11 14.85c1.045 0 2.021.095 2.929.27l-2.132 4.455h-3.89c-2.09 0-3.782 1.66-3.782 3.713S5.816 27 7.906 27H19.25c1.512 0 2.75-1.215 2.75-2.7v-6.453a4 4 0 0 0-2.214-3.591M9.543 24.3H7.906a1.03 1.03 0 0 1-1.03-1.012 1.03 1.03 0 0 1 1.03-1.013h2.599zm9.707 0h-6.669l4.043-8.465c.742.27 1.389.554 1.939.824.412.216.687.675.687 1.188z" fill="#202020"/></svg>