<svg width="26" height="26" viewBox="0 0 26 26" fill="none" xmlns="http://www.w3.org/2000/svg"><path d="M1.896 19.013a.96.96 0 0 1-.42-.664q-.067-.419.15-.799l4.089-6.554q.298-.46.826-.502.53-.04.907.366l2.302 2.682 3.44-5.607q.297-.514.908-.514.609 0 .933.487l1.11 1.68q.3.46.177.88a1.06 1.06 0 0 1-.474.636 1.22 1.22 0 0 1-.771.177q-.42-.04-.719-.502l-.19-.27-3.33 5.416a1.08 1.08 0 0 1-.84.515q-.541.055-.921-.38l-2.302-2.68-3.304 5.335a1.04 1.04 0 0 1-.719.501 1 1 0 0 1-.852-.204m15.519 3.277q-2.031 0-3.453-1.422t-1.422-3.453q-.002-2.033 1.422-3.453t3.453-1.422 3.453 1.422 1.422 3.453q0 .703-.19 1.368a4.4 4.4 0 0 1-.569 1.232l2.6 2.6q.325.324.34.758a1 1 0 0 1-.313.758 1.06 1.06 0 0 1-.77.325 1.06 1.06 0 0 1-.773-.325l-2.627-2.6a4 4 0 0 1-1.205.569q-.663.19-1.368.19m0-2.167q1.137 0 1.923-.786.785-.785.785-1.922 0-1.139-.785-1.923-.786-.786-1.923-.786-1.139 0-1.923.786-.786.784-.786 1.923 0 1.137.786 1.922.785.786 1.923.786m1.327-8.965a1.12 1.12 0 0 1-.488-.623q-.135-.406.163-.866l4.116-6.527q.245-.38.705-.488a.95.95 0 0 1 .84.19q.35.243.433.663.081.42-.136.8l-4.144 6.5q-.297.46-.718.514a1.15 1.15 0 0 1-.771-.163" fill="#202020" fill-opacity=".5"/></svg>